<svg xmlns="http://www.w3.org/2000/svg" style="display: none;">
  
    <symbol id="icon-mail" viewBox="0 0 512 512">
      <path d="m40 98l185 146c8 7 20 10 31 9 11 1 23-2 31-9l184-146c15-12 12-21-7-21l-416 0c-19 0-22 9-8 21z m445 39l-202 153c-7 5-17 8-27 8-10 0-20-3-27-8l-202-153c-15-12-27-6-27 13l0 251c0 19 15 34 34 34l444 0c19 0 34-15 34-34l0-251c0-19-12-25-27-13z"/>
    </symbol>
  
    <symbol id="icon-menu" viewBox="0 0 512 512">
      <path d="m486 230l-460 0c-15 0-26 12-26 26 0 14 11 26 26 26l460 0c14 0 26-12 26-26 0-14-12-26-26-26z m-460-102l460 0c14 0 26-11 26-26 0-14-12-25-26-25l-460 0c-15 0-26 11-26 25 0 15 11 26 26 26z m460 256l-460 0c-15 0-26 12-26 26 0 14 11 25 26 25l460 0c14 0 26-11 26-25 0-14-12-26-26-26z"/>
    </symbol>
  
    <symbol id="icon-phone" viewBox="0 0 512 512">
      <path d="m196 316c46 46 99 90 120 68 30-30 49-56 115-3 66 53 15 89-13 118-34 33-159 2-283-121-124-123-156-248-123-281 29-30 65-80 118-15 53 66 27 85-3 115-21 21 23 74 69 119z m67-217c0 0-14-2-24 7-10 10-10 28 0 38 7 6 15 8 15 8 18 3 43 8 71 36 27 27 33 53 36 70 0 0 1 9 7 15 11 11 28 10 38 0 10-10 8-23 8-23-6-35-23-71-52-100-28-29-64-46-99-51z m130 21c50 50 71 107 65 153 0 0-3 15 7 24 10 11 27 10 38 0 6-6 7-17 7-17 6-40-1-120-79-198-79-78-159-86-199-80 0 0-10 1-17 8-10 10-11 27 0 38 10 9 24 7 24 7 47-7 104 14 154 65z"/>
    </symbol>
  
</svg>
